Coordinates
version=1
nRows=11
nColumns=26
inDegrees=yes

Units are S.I. units (second, meters, Newtons, ...)
If the header above contains a line with 'inDegrees', this indicates whether rotational values are in degrees (yes) or radians (no).

endheader
time	pelvis_tilt	pelvis_list	pelvis_rotation	pelvis_tx	pelvis_ty	pelvis_tz	hip_flexion_r	hip_adduction_r	hip_rotation_r	knee_angle_r	knee_angle_r_beta	hip_flexion_l	hip_adduction_l	hip_rotation_l	knee_angle_l	knee_angle_l_beta	lumbar_extension	lumbar_bending	lumbar_rotation	ankle_angle_r	subtalar_angle_r	mtp_angle_r	ankle_angle_l	subtalar_angle_l	mtp_angle_l
      1.07000000	     -5.81756107	     -7.71664718	     11.82368103	     -0.25785082	      0.86046353	      0.25134515	     17.30130733	      9.00105654	      0.52001839	     17.86247218	      0.31175895	     32.78793271	     -4.78481094	     12.14467997	     71.91690684	      1.25518681	     -0.28270470	      7.58336591	    -11.94320159	      8.95343012	     -9.59672785	      0.00000000	    -12.12312688	    -18.92763656	      0.00000000
      1.08000000	     -5.45596856	     -7.17379350	     11.34375304	     -0.24790100	      0.86180233	      0.25180401	     15.85359012	      8.75862898	      0.64079120	     17.59793227	      0.30714186	     33.34311697	     -4.30331193	     11.39685724	     71.05255652	      1.24010105	     -1.01813206	      7.18049114	    -11.38186033	     10.11611893	     -8.47494742	      0.00000000	    -10.06360438	    -18.70701351	      0.00000000
      1.09000000	     -5.58223460	     -6.77923865	     11.09107365	     -0.23820552	      0.86230497	      0.25189059	     14.94035567	      8.51399552	      0.76451397	     17.17378069	      0.29973902	     34.50773412	     -3.65092722	     11.05562366	     69.97927861	      1.22136882	     -1.07395312	      6.82429142	    -11.21453128	     10.75464047	     -8.17630781	      0.00000000	     -8.76005478	    -18.64349613	      0.00000000
      1.10000000	     -5.31976407	     -6.23236164	     10.57583969	     -0.22826692	      0.86325278	      0.25219407	     13.59322793	      8.22666411	      1.06538854	     16.86643227	      0.29437478	     34.96478841	     -3.15978051	     10.40980073	     68.48775212	      1.19533677	     -1.64665708	      6.41815672	    -10.77042887	     11.73089025	     -7.39567764	      0.00000000	     -7.38639314	    -18.32280849	      0.00000000
      1.11000000	     -5.27056631	     -5.81265346	     10.19962965	     -0.21832852	      0.86372535	      0.25243883	     12.47865283	      7.98731741	      1.24443910	     16.47174806	      0.28748624	     35.65251200	     -2.72878194	      9.96044603	     66.75266965	      1.16505387	     -1.91417276	      6.04218380	    -10.46767359	     12.55023141	     -6.78925018	      0.00000000	     -6.35348947	    -18.10538624	      0.00000000
      1.12000000	     -5.11681907	     -5.41418911	      9.76467695	     -0.20831669	      0.86415581	      0.25267213	     11.26754154	      7.76936727	      1.37610049	     16.10806615	      0.28113879	     36.09902158	     -2.42320702	      9.48493453	     64.72610754	      1.12968369	     -2.28181035	      5.73161482	    -10.10975689	     13.44434434	     -6.01107336	      0.00000000	     -5.43965182	    -17.87452163	      0.00000000
      1.13000000	     -5.03355554	     -5.06478193	      9.31816310	     -0.19829479	      0.86429015	      0.25293360	     10.13998591	      7.59720323	      1.65410822	     15.72855024	      0.27451499	     36.53166582	     -2.20325507	      9.05991078	     62.44293102	      1.08983474	     -2.53707051	      5.44217395	     -9.81067057	     14.20915637	     -5.51515054	      0.00000000	     -4.66177029	    -17.63547242	      0.00000000
      1.14000000	     -5.01701878	     -4.78439427	      8.88618373	     -0.18830267	      0.86416173	      0.25309453	      9.09377431	      7.46873997	      1.95644560	     15.32230023	      0.26742459	     36.94148803	     -2.05202170	      8.72080195	     59.89657220	      1.04539240	     -2.68871148	      5.24480364	     -9.56272641	     14.89413679	     -5.08567778	      0.00000000	     -3.98816747	    -17.41164690	      0.00000000
      1.15000000	     -4.85975550	     -4.53430455	      8.40684551	     -0.17820996	      0.86405400	      0.25335866	      7.89629339	      7.38375007	      2.22832987	     14.92531113	      0.26049582	     37.05881214	     -2.06448932	      8.33071027	     57.06293718	      0.99593613	     -3.00265108	      5.08409626	     -9.21859140	     15.62085544	     -4.52507701	      0.00000000	     -3.37700587	    -17.24331862	      0.00000000
      1.16000000	     -4.81250357	     -4.34636050	      7.94513058	     -0.16813923	      0.86360932	      0.25357623	      6.83761236	      7.33122031	      2.52072368	     14.53768287	      0.25373043	     37.19344329	     -2.12355347	      8.02998362	     53.99081250	      0.94231744	     -3.16081393	      4.97030949	     -8.95966798	     16.30257808	     -4.07520233	      0.00000000	     -2.89132789	    -17.06578510	      0.00000000
      1.17000000	     -4.77205398	     -4.22227307	      7.47741348	     -0.15807115	      0.86299975	      0.25378925	      5.80449660	      7.33131792	      2.80898613	     14.16209396	      0.24717517	     37.22210244	     -2.27537463	      7.77735384	     50.67729767	      0.88448570	     -3.29560764	      4.91452245	     -8.70234515	     16.91808268	     -3.60949136	      0.00000000	     -2.47483508	    -16.90007590	      0.00000000
